<?xml version="1.0" encoding="UTF-8"?>
<svg id="Layer_1" data-name="Layer 1" xmlns="http://www.w3.org/2000/svg" viewBox="0 0 2000 2000">
  <defs>
    <style>
      .cls-1 {
        fill: #fff;
      }

      .cls-2 {
        fill: #379bff;
      }
    </style>
  </defs>
  <rect width="2000" height="2000"/>
  <g>
    <path class="cls-1" d="m570.65,1100.19h-40.02l-90.62-136.92v136.92h-40.02v-199.81h40.02l90.62,137.21v-137.21h40.02v199.81Z"/>
    <path class="cls-1" d="m1052.03,900.67v199.53h-40.02v-129.78l-53.45,129.78h-30.3l-53.74-129.78v129.78h-40.02v-199.53h45.45l63.46,148.36,63.46-148.36h45.16Z"/>
    <path class="cls-1" d="m1131.49,900.67v199.53h-40.02v-199.53h40.02Z"/>
    <path class="cls-1" d="m1341.59,1100.19h-40.02l-90.62-136.92v136.92h-40.02v-199.81h40.02l90.62,137.21v-137.21h40.02v199.81Z"/>
    <path class="cls-1" d="m1421.06,900.67v199.53h-40.02v-199.53h40.02Z"/>
    <path class="cls-1" d="m1491.8,1095.05c-11.15-4.76-19.97-11.62-26.44-20.58-6.48-8.96-9.82-19.53-10-31.73h42.88c.57,8.2,3.48,14.68,8.72,19.44,5.24,4.77,12.43,7.15,21.58,7.15s16.67-2.24,22.01-6.72c5.33-4.48,8-10.34,8-17.58,0-5.9-1.81-10.76-5.43-14.58-3.62-3.81-8.15-6.81-13.58-9-5.43-2.19-12.91-4.62-22.44-7.29-12.96-3.81-23.49-7.58-31.59-11.29-8.1-3.72-15.06-9.33-20.87-16.87-5.82-7.53-8.72-17.58-8.72-30.16,0-11.81,2.95-22.1,8.86-30.87,5.9-8.76,14.19-15.48,24.87-20.15,10.67-4.67,22.87-7,36.59-7,20.58,0,37.3,5,50.17,15.01,12.86,10,19.96,23.97,21.3,41.88h-44.02c-.38-6.86-3.29-12.53-8.72-17.01-5.43-4.48-12.63-6.72-21.58-6.72-7.82,0-14.06,2-18.72,6-4.67,4-7,9.82-7,17.44,0,5.34,1.76,9.77,5.29,13.29,3.52,3.53,7.91,6.39,13.15,8.58,5.24,2.19,12.62,4.72,22.15,7.58,12.96,3.81,23.53,7.62,31.73,11.43,8.19,3.81,15.24,9.53,21.15,17.15,5.9,7.62,8.86,17.63,8.86,30.01,0,10.67-2.76,20.58-8.29,29.73-5.53,9.15-13.63,16.44-24.3,21.87-10.67,5.43-23.35,8.15-38.02,8.15-13.91,0-26.44-2.38-37.59-7.15Z"/>
    <g>
      <path class="cls-2" d="m653.84,1036.74c-7.72-10.22-12.3-22.94-12.3-36.74,0-33.71,27.32-61.03,61.03-61.03s61.03,27.32,61.03,61.03c0,13.8-4.58,26.52-12.3,36.74h47.29c4.11-11.36,6.17-23.65,6.17-36.88,0-19.44-4.52-36.92-13.58-52.45-9.05-15.53-21.34-27.68-36.87-36.45-15.53-8.77-32.73-13.16-51.6-13.16s-35.82,4.39-51.45,13.16c-15.62,8.77-28,20.92-37.15,36.45-9.15,15.53-13.73,33.01-13.73,52.45,0,13.22,2.09,25.51,6.24,36.88h47.22Z"/>
      <path class="cls-2" d="m651.75,1089.32h101.92c-15.49,8.59-32.47,12.88-50.96,12.88s-35.46-4.29-50.96-12.88Z"/>
      <path class="cls-2" d="m781.42,1066.46c-3.93,4.7-8.25,9-12.99,12.88h-131.45c-4.74-3.88-9.09-8.18-13.04-12.88h157.48Z"/>
    </g>
  </g>
</svg>